<svg id="Component_1_2" data-name="Component 1 – 2" xmlns="http://www.w3.org/2000/svg" xmlns:xlink="http://www.w3.org/1999/xlink" width="301" height="47.1" viewBox="0 0 301 47.1">
  <defs>
    <clipPath id="clip-path">
      <rect id="Rectangle_4" data-name="Rectangle 4" width="47.338" height="47.1" fill="none"/>
    </clipPath>
  </defs>
  <text id="Giovanni_Garrone" data-name="Giovanni Garrone" transform="translate(61 10.05)" font-size="23" font-family="HelveticaNeue-Medium, Helvetica Neue" font-weight="500"><tspan x="0" y="22">Giovanni Garrone</tspan></text>
  <g id="Group_11" data-name="Group 11">
    <g id="Group_10" data-name="Group 10" clip-path="url(#clip-path)">
      <path id="Path_2" data-name="Path 2" d="M47.1,19.171a32.765,32.765,0,0,0-.809-4.417,13.43,13.43,0,0,0-.977-2.942,12.889,12.889,0,0,0-2.806-3.525c-1.086-1.053-2.215-2.06-3.338-3.073-.637-.567-1.271-1.138-1.936-1.673a10.55,10.55,0,0,0-6.564-2.056A13.829,13.829,0,0,0,26.16.317a12.525,12.525,0,0,0-2.578.161A1.218,1.218,0,0,1,23.1.5a8.427,8.427,0,0,0-1.884.029,4.518,4.518,0,0,0-3.4-.309,18.987,18.987,0,0,0-6.354,4.078,26.792,26.792,0,0,0-4.684,5.732,28.964,28.964,0,0,0-2.794,5.135,23.153,23.153,0,0,0-1.826,4.094c-.52,1.453-1.029,2.913-1.417,4.408a16.543,16.543,0,0,0-.73,4.677,15.748,15.748,0,0,0,.87,4.313c1.551,4.712,4.452,6.039,8.606,8.074,1.825.884,3.63,1.814,5.5,2.606,1.562.663,3.173,1.2,4.759,1.8a14.459,14.459,0,0,0,3.327,1.44c.507.091,1.076.462,1.57.18a11.5,11.5,0,0,0,1.651.287,17.593,17.593,0,0,0,2.963-.007,11.031,11.031,0,0,0,5.413-1.41,24.341,24.341,0,0,0,3.983-3,22.806,22.806,0,0,0,3.676-3.759,19.013,19.013,0,0,0,2.112-4.739c.619-1.868,1.237-3.739,1.791-5.627A25.4,25.4,0,0,0,47.3,23.585a23.366,23.366,0,0,0-.2-4.414M14.978,2.1A10.478,10.478,0,0,1,18.921.28a5.286,5.286,0,0,1,1.915.306,13.861,13.861,0,0,0-4.414,1.74,25.108,25.108,0,0,0-3.044,1.785A33.764,33.764,0,0,0,8.009,9.519,23.478,23.478,0,0,1,14.978,2.1M4.143,18.779a17.694,17.694,0,0,1,2.149-4.115,37.167,37.167,0,0,0-2.1,6.6,9.031,9.031,0,0,1-.053-2.489m-.87,15.2A14.16,14.16,0,0,1,1.69,27.961a23.563,23.563,0,0,1,1.31-6q.224,1.74.491,3.474a22.5,22.5,0,0,0-.045,2.514,16.807,16.807,0,0,0,3.3,9.444,8.478,8.478,0,0,1-3.47-3.415M25.928,44.511a12.4,12.4,0,0,1-2.287-.408c-1.19-.283-2.372-.6-3.548-.943-.278-.087-.555-.173-.831-.263-.824-.507-1.66-.994-2.5-1.467-.793-.433-1.61-.821-2.428-1.2A38.87,38.87,0,0,1,9.1,35.832a14.356,14.356,0,0,1-3.475-6.955c-.168-.67-.347-1.386-.5-2.11a22.648,22.648,0,0,1,.719-5.145A36.368,36.368,0,0,1,8,14.937a22.812,22.812,0,0,1,5.022-8.171,17.875,17.875,0,0,1,3.459-2.535,37.538,37.538,0,0,1,5.388-1.687c.461-.1.917-.22,1.38-.3a14.689,14.689,0,0,1,1.822.278,37.671,37.671,0,0,0,4.1.571c.35.03.7.037,1.053.058a11.7,11.7,0,0,1,2.779,2.108A55.757,55.757,0,0,1,36.94,9.511,15.028,15.028,0,0,1,40.3,14.864a27.58,27.58,0,0,1,.341,6.735,26.76,26.76,0,0,1-1.061,5.6,59.334,59.334,0,0,1-2.426,7.484,42.177,42.177,0,0,1-2.338,3.947,10.627,10.627,0,0,1-3.873,4.111,11.57,11.57,0,0,1-5.018,1.768m18.565-16.1c-.289.95-.583,1.9-.9,2.84-.859,2.463-1.436,5.136-3.092,7.216a27.751,27.751,0,0,1-2.894,2.812c-1.754,1.509-3.566,3.139-5.857,3.742a16.059,16.059,0,0,1-2.278.306c4.01-1.687,5.149-3.139,7.36-6.743a28.022,28.022,0,0,0,1.893-3.3,39.253,39.253,0,0,0,1.762-5.131,46.5,46.5,0,0,0,1.776-7.6,37.009,37.009,0,0,0,.082-4.515,18.1,18.1,0,0,0-.356-3.364,14.046,14.046,0,0,0-3.182-5.565,62.181,62.181,0,0,0-4.72-5.157c-.126-.121-.252-.241-.38-.36A8.229,8.229,0,0,1,37.2,5.723c.979.855,1.933,1.739,2.9,2.612,2.024,1.892,3.734,3.312,4.389,6.14A33.316,33.316,0,0,1,45.644,22.8a22.288,22.288,0,0,1-1.151,5.613" transform="translate(0 0)"/>
      <path id="Path_3" data-name="Path 3" d="M95.671,103.507a3.5,3.5,0,0,0,3.086-1.278q-.038.295-.076.589c-.062.3-.119.6-.159.9a.572.572,0,0,0,.02.241c-.025.218-.049.436-.07.654a.58.58,0,1,0,1.154.122c.023-.206.044-.413.064-.619a.554.554,0,0,0,.074-.181c.055-.3.1-.61.169-.913.215-1.032.51-2.047.713-3.082.083-.364.077-.744.143-1.107a.568.568,0,0,0,.006-.323.9.9,0,0,0-.421-.987.47.47,0,0,0-.179-.19c-.006-.035-.012-.07-.019-.1a.42.42,0,0,0-.739.219l0,.1a1.882,1.882,0,0,0-.187.718,2.063,2.063,0,0,1-.287.385c-.48.53-2.216,2.556-2.815,2.587A8.245,8.245,0,0,1,96.19,99.7c.083-.238.159-.48.247-.716a12.9,12.9,0,0,1,.945-2.1,18.133,18.133,0,0,1,3.473-2.78.745.745,0,0,0,.34-.624c0-.417-.429-.614-.793-.614a2.127,2.127,0,0,0-1.414.3c-.122.072-.241.149-.355.231-.1,0-.195,0-.292.008-.822.011-1.326.794-1.757,1.4a20.263,20.263,0,0,0-1.552,2.873,12.164,12.164,0,0,0-1.259,3.183,2.026,2.026,0,0,0,1.9,2.65m1.755-9.226a1.477,1.477,0,0,1,.791-.55,6.26,6.26,0,0,0-.529.533,5.109,5.109,0,0,0-.721.654q.219-.325.459-.637m-1.753,8.209c.014.014.029.025.043.038a1.089,1.089,0,0,1-.349.022,2.024,2.024,0,0,1,.306-.06m-.887-2.782q.058-.172.122-.342c-.013.08-.026.16-.038.24a4.689,4.689,0,0,1-.349,1.287,7.668,7.668,0,0,1,.265-1.185" transform="translate(-81.507 -80.778)"/>
      <path id="Path_4" data-name="Path 4" d="M201.665,100.054a1.627,1.627,0,0,0,.822-.191,6.208,6.208,0,0,0,1.968-1.557c-.186.916-.273,1.854-.391,2.78a.729.729,0,0,0,.162.678c-.039.361-.055.774.361.839a.416.416,0,0,0,.445-.313c.036-.176.061-.355.084-.534a.971.971,0,0,0,.2-.647c.041-.361.091-.721.148-1.079a.636.636,0,0,0,.387-.507c.146-.744.314-1.485.434-2.235.078-.513.131-1.029.19-1.545.15-.506.471-1.184.008-1.536a.607.607,0,0,0-.785.065l-.029.016a1,1,0,0,0-.381.784,2.173,2.173,0,0,1-.138.278,12.453,12.453,0,0,1-1.592,1.878,2.993,2.993,0,0,1-.863.577.841.841,0,0,1-.5-.128,1.841,1.841,0,0,1-.286-1.326,8.215,8.215,0,0,1,2.415-3.1,14.429,14.429,0,0,1,2.03-1.282,3.725,3.725,0,0,0,.9-.655,1.093,1.093,0,0,0-.133-1.7,1.718,1.718,0,0,0-1.135-.117,5.726,5.726,0,0,0-2.89,1.891,9.132,9.132,0,0,0-1.965,3.372,3.972,3.972,0,0,0-.112.585,8.555,8.555,0,0,0-.584,1.382,10.137,10.137,0,0,0-.337,1.715,1.579,1.579,0,0,0,1.559,1.615m4.589-9.45c-.689.474-1.475.794-2.154,1.285a4.232,4.232,0,0,1,2.154-1.285m-4.459,8.189-.05.013a.54.54,0,0,1-.346-.148,2.547,2.547,0,0,0,.4.135" transform="translate(-174.093 -77.828)"/>
      <path id="Path_5" data-name="Path 5" d="M92.472,189.842a16.9,16.9,0,0,0,1.1-1.6c.116.076.209.134.266.165a1.24,1.24,0,0,0,.3.417c.442.311.9-.045,1.043-.486a1.589,1.589,0,0,0-.13-.909c-.13-.369-.231-.749-.394-1.106a.562.562,0,0,0-.489-.329c-.132-.173-.276-.337-.42-.5a.643.643,0,0,0-.391-.266c-.358-.089-.568.309-.557.616a3.265,3.265,0,0,0,.133.605.587.587,0,0,0-.457-.18.663.663,0,0,0-.154.023c-.14-.064-.279-.128-.42-.191-.138-.045-.48-.264-.59-.129-.114.159.067.447.378.77-.477.413-.943.837-1.409,1.261-.578.508-1.12,1.054-1.675,1.586a22.619,22.619,0,0,0-1.79,1.7,8.551,8.551,0,0,1-2.132,1.161c-.393.126-.795.223-1.18.372a11.063,11.063,0,0,1-1.983.545c-.554.086-1.114.123-1.669.2-.57-.063-1.139-.121-1.707-.2-.533-.077-1.056-.205-1.59-.277-.578-.083-1.163-.106-1.745-.156a19.722,19.722,0,0,1-1.857-.679,10.244,10.244,0,0,1-1.654-1.037,6.673,6.673,0,0,1-1.641-1.52,18.141,18.141,0,0,0-1.511-1.838l-.046-.048a1.228,1.228,0,0,0,.277-.878.571.571,0,0,0-.976-.27,4.356,4.356,0,0,0-.419.548c-.2.063-.5.175-.367.375a.783.783,0,0,0-.264.44c-.043.041-.088.081-.135.118-.326.285-.682.53-1.017.8a.585.585,0,0,0,.466,1.032.374.374,0,0,0,.144.07.388.388,0,0,0,.426-.187h0a5.106,5.106,0,0,1,.366-.558c.072-.059.14-.116.207-.173.111.13.227.25.332.353.518.526,1.076,1.011,1.593,1.539.367,1.007.183,1.951,1.156,2.7a5.52,5.52,0,0,0,2.906.8c1.642.212,3.25.63,4.9.78a5.443,5.443,0,0,0,2.791-.372,8.339,8.339,0,0,0,4.676-.274c.54-.185,1.062-.414,1.587-.636.743-.319,1.517-.573,2.23-.957a13.5,13.5,0,0,0,3.49-3.226m.656-2.877q.041.1.084.19a.568.568,0,0,0-.136,0,.56.56,0,0,0,.052-.191m-1.691-.9a4.39,4.39,0,0,1,.723.287.814.814,0,0,0-.182.136l-.125.108a1.692,1.692,0,0,1-.417-.531" transform="translate(-56.537 -161.141)"/>
    </g>
  </g>
</svg>
