<?xml version="1.0" encoding="UTF-8"?><svg id="Layer_1" xmlns="http://www.w3.org/2000/svg" viewBox="0 0 20 20"><defs><style>.cls-1{fill:#ffc76e;}.cls-2{fill:#ff6c6c;}</style></defs><g><path class="cls-2" d="M13,5c-1.1,0-2,.9-2,2s.9,2,2,2,2-.9,2-2-.9-2-2-2Zm0,0c-1.1,0-2,.9-2,2s.9,2,2,2,2-.9,2-2-.9-2-2-2Zm0,0c-1.1,0-2,.9-2,2s.9,2,2,2,2-.9,2-2-.9-2-2-2Zm0,0c-1.1,0-2,.9-2,2s.9,2,2,2,2-.9,2-2-.9-2-2-2Zm0,0c-1.1,0-2,.9-2,2s.9,2,2,2,2-.9,2-2-.9-2-2-2Z"/><path class="cls-2" d="M15.42,11.65C21.78,5.29,19.66,.34,19.66,.34c0,0-4.95-2.12-11.31,4.24l-2.49-.5c-.32-.06-.66-.04-.97,.05-.32,.1-.61,.27-.84,.5L0,8.69l5,2.14,4.17,4.17,2.14,5,4.05-4.05c.47-.47,.68-1.15,.55-1.81l-.49-2.49Zm-10.01-2.82l-1.91-.82,1.97-1.97,1.44,.29c-.57,.83-1.08,1.7-1.5,2.5Zm6.58,7.67l-.82-1.91c.8-.42,1.67-.93,2.49-1.5l.29,1.44-1.96,1.97Zm2.01-6.26c-1.32,1.32-3.38,2.4-4.04,2.73l-2.93-2.93c.32-.65,1.4-2.71,2.73-4.04,4.68-4.68,8.23-3.99,8.23-3.99,0,0,.69,3.55-3.99,8.23Z"/></g><path class="cls-1" d="M6.78,14.85c-.23-.55-.62-1.02-1.11-1.35-.5-.33-1.08-.5-1.67-.5-.83,0-1.58,.34-2.12,.88-1.18,1.18-1.88,6.12-1.88,6.12,0,0,4.94-.7,6.12-1.88,.42-.42,.71-.95,.82-1.54,.12-.58,.06-1.18-.16-1.73Zm-1.8,1.35c-.04,.19-.13,.37-.27,.51-.28,.28-2.17,.76-2.17,.76,0,0,.47-1.88,.76-2.17,.17-.19,.42-.3,.7-.3,.2,0,.39,.06,.56,.17,.16,.11,.29,.27,.36,.45,.08,.18,.1,.38,.06,.58Z"/></svg>