<svg id="Group_13" data-name="Group 13" xmlns="http://www.w3.org/2000/svg" xmlns:xlink="http://www.w3.org/1999/xlink" width="422.891" height="420.766" viewBox="0 0 422.891 420.766">
  <defs>
    <clipPath id="clip-path">
      <rect id="Rectangle_5" data-name="Rectangle 5" width="422.891" height="420.766" fill="#f6a92b"/>
    </clipPath>
  </defs>
  <g id="Group_12" data-name="Group 12" clip-path="url(#clip-path)">
    <path id="Path_6" data-name="Path 6" d="M420.751,171.263a292.7,292.7,0,0,0-7.229-39.461c-2.133-8.984-4.57-17.991-8.725-26.282-5.9-12.259-15.417-22.118-25.068-31.493-9.7-9.4-19.788-18.4-29.819-27.456C344.216,41.5,338.553,36.4,332.618,31.622c-16.288-13.667-37.926-17.7-58.638-18.37A123.543,123.543,0,0,0,233.7,2.831a111.89,111.89,0,0,0-23.027,1.434,10.877,10.877,0,0,1-4.354.173,75.279,75.279,0,0,0-16.833.258c-10.377-4-19.46-6.724-30.383-2.756-21.278,7.712-40.288,21.075-56.76,36.431C85.681,53.036,72.458,70.988,60.5,89.574c-9.52,14.6-18.544,29.615-24.958,45.871-6.9,11.486-11.771,24.01-16.313,36.575C14.584,185,10.034,198.044,6.566,211.4c-3.533,13.647-7,27.57-6.52,41.779.45,13.152,3.708,26.072,7.772,38.531,13.852,42.1,39.774,53.948,76.884,72.129,16.306,7.894,32.428,16.2,49.112,23.285,13.95,5.925,28.343,10.7,42.51,16.071a129.17,129.17,0,0,0,29.725,12.864c4.527.817,9.611,4.127,14.028,1.6a102.761,102.761,0,0,0,14.753,2.564c8.8.943,17.658.482,26.468-.064,17.6-.9,32.982-3.4,48.358-12.595,13.018-7.288,24.376-17.092,35.585-26.84,11.629-10.463,23.851-20.642,32.835-33.579,8.721-12.881,13.993-27.667,18.871-42.332,5.533-16.688,11.051-33.4,16-50.273,3.993-14.412,8.52-28.851,9.6-43.843.981-13.166-.282-26.354-1.794-39.435M133.808,18.768c10.845-6.956,22.261-14.3,35.221-16.265,5.846-.629,11.491,1.232,17.108,2.73-14.055,2.472-27.111,8.517-39.43,15.54-9.21,5.064-18.741,9.617-27.193,15.95C101.234,50.293,86.24,67.786,71.548,85.034c15.761-26.117,36.79-49.234,62.261-66.266m-96.8,149c4.559-13.113,11.393-25.3,19.2-36.76-7.879,19.116-14.527,38.727-18.728,59a80.68,80.68,0,0,1-.469-22.238M29.233,303.532c-8.2-15.78-13.884-35.784-14.139-53.739.671-18.376,6.331-36.158,11.7-53.611q2,15.545,4.389,31.036a201,201,0,0,0-.4,22.456c1.124,28.377,11.306,62.264,29.453,84.368-13.077-7.218-23.922-17.259-31-30.51m202.4,94.107c-6.956-.2-13.679-2.163-20.435-3.647-10.635-2.532-21.191-5.39-31.7-8.421-2.48-.773-4.955-1.543-7.42-2.346-7.361-4.533-14.828-8.878-22.365-13.106-7.088-3.864-14.383-7.331-21.694-10.75-16.417-12-32.652-24.537-46.739-39.26-16.764-16.81-25.6-39.4-31.041-62.128-1.5-5.984-3.1-12.382-4.425-18.846-.089-15.527,2.977-30.875,6.422-45.965,4.2-20.568,11.2-40.382,19.266-59.725,10.765-26.558,23.863-52.985,44.861-73a159.689,159.689,0,0,1,30.9-22.643c15.468-6.618,31.879-10.858,48.135-15.069,4.118-.87,8.19-1.964,12.331-2.689,5.429.062,10.874,1.725,16.277,2.48a336.53,336.53,0,0,0,36.627,5.1c3.13.264,6.273.331,9.408.514,9.288,4.807,17.4,11.524,24.83,18.83A498.1,498.1,0,0,1,330,84.97c12.062,14.441,24.895,29.324,30.045,47.816,4.241,19.685,3.721,40.144,3.044,60.169-.67,17.04-5.228,33.612-9.474,50.042-6.513,22.5-12.215,45.364-21.672,66.855-6.011,12.3-13.59,23.707-20.888,35.262-8.974,14.358-19.17,28.794-34.6,36.729-13.939,7.3-28.721,15.563-44.828,15.795M397.483,253.8c-2.586,8.485-5.21,16.962-8.019,25.372-7.678,22-12.828,45.884-27.627,64.463-7.748,9.213-16.867,17.151-25.849,25.124-15.67,13.483-31.861,28.04-52.321,33.425-6.674,1.607-13.534,2.1-20.348,2.735,35.82-15.075,45.994-28.038,65.752-60.234,6.073-9.562,12.178-19.164,16.908-29.479,6.606-14.771,11.242-30.315,15.742-45.834,6.3-22.339,13.382-44.709,15.864-67.866,1.241-13.4,1.131-26.893.73-40.332-.374-10.065-.93-20.21-3.179-30.056-4.415-18.943-16.243-34.97-28.423-49.711-13.343-15.984-27.1-31.675-42.168-46.07-1.126-1.08-2.252-2.156-3.393-3.216,12.133,2.948,22.1,10.75,31.152,19,8.747,7.64,17.27,15.538,25.874,23.338,18.083,16.9,33.354,29.584,39.209,54.851,6.278,24.252,10.375,49.244,10.374,74.343-.269,17.205-5.674,33.721-10.279,50.143" transform="translate(0 0)" fill="#f6a92b"/>
    <path id="Path_7" data-name="Path 7" d="M111.45,188.106c11.025,1.761,20.233-3.765,27.566-11.42q-.341,2.631-.68,5.262c-.554,2.674-1.059,5.363-1.422,8.062a5.11,5.11,0,0,0,.175,2.157c-.219,1.946-.435,3.892-.629,5.841a5.184,5.184,0,1,0,10.311,1.087c.208-1.843.39-3.689.57-5.534a4.949,4.949,0,0,0,.658-1.613c.493-2.721.937-5.448,1.514-8.154,1.92-9.223,4.556-18.286,6.368-27.532.745-3.249.686-6.642,1.277-9.893a5.072,5.072,0,0,0,.051-2.882c.428-3.343-.448-7.464-3.765-8.819a4.2,4.2,0,0,0-1.6-1.7c-.056-.311-.1-.625-.171-.933-1.9-2.55-6.425-1.252-6.6,1.953-.015.287-.029.574-.044.861-1.171,1.859-1.324,4.239-1.668,6.416a18.435,18.435,0,0,1-2.568,3.441c-4.284,4.738-19.8,22.832-25.146,23.109-.548-4.585.128-9.19.44-13.765.737-2.128,1.418-4.285,2.206-6.394,2.429-6.379,4.914-12.915,8.441-18.75,8.609-10.279,20.317-17.058,31.027-24.839A6.66,6.66,0,0,0,160.8,98.5c.028-3.726-3.834-5.489-7.088-5.482a19,19,0,0,0-12.634,2.705c-1.094.641-2.149,1.334-3.17,2.068-.87.027-1.739.035-2.612.073-7.346.094-11.85,7.09-15.693,12.475A181.019,181.019,0,0,0,105.734,136a108.664,108.664,0,0,0-11.247,28.431c-3.4,12.7,4.291,22.183,16.964,23.672m15.675-82.424c1.94-2.162,4.107-4.386,7.07-4.915a55.931,55.931,0,0,0-4.724,4.763,45.637,45.637,0,0,0-6.441,5.846q1.956-2.907,4.1-5.694m-15.661,73.332c.125.127.255.224.383.337a9.723,9.723,0,0,1-3.121.2,18.078,18.078,0,0,1,2.738-.538m-7.925-24.853q.519-1.534,1.088-3.058c-.12.714-.236,1.429-.339,2.146-.317,4.021-1.7,7.759-3.116,11.5a68.5,68.5,0,0,1,2.367-10.587" transform="translate(15.086 14.951)" fill="#f6a92b"/>
    <path id="Path_8" data-name="Path 8" d="M214.093,184.157a14.539,14.539,0,0,0,7.347-1.7c6.928-3.166,12.511-8.321,17.58-13.908-1.661,8.186-2.442,16.559-3.49,24.833a6.515,6.515,0,0,0,1.444,6.056c-.353,3.224-.493,6.915,3.225,7.493a3.718,3.718,0,0,0,3.977-2.795c.325-1.572.547-3.168.748-4.767a8.67,8.67,0,0,0,1.8-5.778c.366-3.224.814-6.438,1.325-9.642a5.679,5.679,0,0,0,3.455-4.53c1.306-6.65,2.8-13.269,3.873-19.967.7-4.581,1.167-9.2,1.7-13.8,1.342-4.516,4.209-10.574.075-13.726a5.419,5.419,0,0,0-7.014.584c-.086.05-.176.091-.262.145-2.425,1.464-3.058,4.395-3.4,7a19.414,19.414,0,0,1-1.234,2.486,111.239,111.239,0,0,1-14.222,16.776,26.741,26.741,0,0,1-7.713,5.151,7.512,7.512,0,0,1-4.426-1.145c-2.9-2.991-2.612-7.946-2.555-11.844a73.384,73.384,0,0,1,21.573-27.72c5.578-4.534,11.913-7.921,18.139-11.454a33.271,33.271,0,0,0,8.067-5.848c4.359-4.139,4.157-11.978-1.19-15.191-3.033-1.808-6.782-1.537-10.142-1.043-10.013,1.666-19.013,9.736-25.817,16.892-7.385,8.968-14.57,18.724-17.557,30.128a35.522,35.522,0,0,0-1,5.222,76.412,76.412,0,0,0-5.218,12.344,90.539,90.539,0,0,0-3.009,15.319c-.817,8.012,6.451,13.9,13.931,14.432m40.995-84.426c-6.155,4.231-13.174,7.092-19.246,11.483,5.43-4.742,11.751-10.784,19.246-11.483m-39.836,73.16c-.147.043-.295.086-.446.12-1.689-.289-2.613-.721-3.09-1.325a22.766,22.766,0,0,0,3.535,1.205" transform="translate(32.223 14.405)" fill="#f6a92b"/>
    <path id="Path_9" data-name="Path 9" d="M310.555,226.572c4.042-4.224,6.344-9.676,9.858-14.311,1.036.68,1.863,1.194,2.372,1.473.628,1.105,1.444,2.894,2.661,3.727,3.951,2.781,8.049-.4,9.317-4.345A14.194,14.194,0,0,0,333.6,205c-1.159-3.293-2.063-6.688-3.517-9.879a5.023,5.023,0,0,0-4.366-2.941c-1.182-1.548-2.466-3.012-3.755-4.471a5.748,5.748,0,0,0-3.5-2.379c-3.194-.8-5.077,2.763-4.979,5.5a29.172,29.172,0,0,0,1.188,5.408,5.243,5.243,0,0,0-4.081-1.606,5.915,5.915,0,0,0-1.375.2c-1.247-.574-2.5-1.145-3.75-1.7-1.228-.4-4.287-2.357-5.272-1.155-1.016,1.425.6,3.99,3.373,6.877-4.258,3.687-8.422,7.477-12.587,11.269-5.162,4.542-10,9.416-14.962,14.172a202.107,202.107,0,0,0-15.993,15.162c-5.55,4.665-12.46,7.492-19.05,10.374-3.51,1.123-7.1,1.989-10.546,3.322a98.82,98.82,0,0,1-17.714,4.869c-4.947.764-9.955,1.1-14.911,1.826-5.089-.558-10.179-1.08-15.248-1.8-4.759-.69-9.435-1.834-14.2-2.478-5.164-.744-10.39-.95-15.587-1.394a176.206,176.206,0,0,1-16.592-6.062c-5.482-2.607-9.61-5.544-14.776-9.263a59.622,59.622,0,0,1-14.657-13.576,162.051,162.051,0,0,0-13.495-16.424c-.136-.136-.274-.28-.414-.428,1.685-2.341,2.846-4.923,2.476-7.842-.653-4.036-6.05-5.4-8.717-2.413a38.917,38.917,0,0,0-3.741,4.894c-1.8.563-4.424,1.562-3.276,3.353a7,7,0,0,0-2.355,3.931c-.387.367-.785.723-1.21,1.058-2.912,2.547-6.1,4.736-9.087,7.183a5.228,5.228,0,0,0,4.161,9.219,3.339,3.339,0,0,0,1.284.629,3.463,3.463,0,0,0,3.807-1.67l.006,0a45.618,45.618,0,0,1,3.269-4.984c.64-.525,1.249-1.039,1.845-1.55.989,1.165,2.028,2.233,2.963,3.156,4.624,4.7,9.615,9.033,14.235,13.744,3.278,9,1.632,17.428,10.331,24.153,7.344,5.824,17.056,6.058,25.96,7.132,14.665,1.891,29.037,5.626,43.79,6.972a48.628,48.628,0,0,0,24.932-3.321c16.409,2.471,25.742,3.065,41.775-2.452,4.821-1.652,9.487-3.7,14.176-5.684,6.638-2.85,13.553-5.118,19.924-8.549,12.468-6.989,22.021-18.054,31.174-28.817m5.862-25.705q.367.855.754,1.7a5.071,5.071,0,0,0-1.214.01,5,5,0,0,0,.461-1.71m-15.11-8.012a39.232,39.232,0,0,1,6.461,2.567,7.277,7.277,0,0,0-1.623,1.213c-.375.317-.743.642-1.116.961a15.119,15.119,0,0,1-3.722-4.742" transform="translate(10.465 29.826)" fill="#f6a92b"/>
  </g>
</svg>
