<svg id="Group_22" data-name="Group 22" xmlns="http://www.w3.org/2000/svg" xmlns:xlink="http://www.w3.org/1999/xlink" width="1786.688" height="1777.711" viewBox="0 0 1786.688 1777.711">
  <defs>
    <clipPath id="clip-path">
      <rect id="Rectangle_4" data-name="Rectangle 4" width="1786.688" height="1777.711" fill="none"/>
    </clipPath>
  </defs>
  <g id="Group_10" data-name="Group 10" clip-path="url(#clip-path)">
    <path id="Path_2" data-name="Path 2" d="M1777.647,723.577a1236.584,1236.584,0,0,0-30.541-166.722c-9.011-37.957-19.307-76.013-36.863-111.041-24.948-51.8-65.137-93.446-105.91-133.056-40.989-39.733-83.6-77.759-125.983-116-24.06-21.4-47.983-42.951-73.059-63.156-68.817-57.74-160.237-74.8-247.742-77.612a521.962,521.962,0,0,0-170.185-44.03,472.731,472.731,0,0,0-97.287,6.058c-6.132,1.315-12.18,1.9-18.395.731a318.05,318.05,0,0,0-71.117,1.089C756.721,2.943,718.346-8.569,672.2,8.192,582.3,40.773,501.983,97.233,432.392,162.111,362,224.074,306.129,299.92,255.59,378.444c-40.223,61.674-78.347,125.12-105.444,193.8C121,620.776,100.416,673.69,81.226,726.775,61.615,781.631,42.391,836.722,27.739,893.138,12.812,950.8-1.845,1009.62.19,1069.651c1.9,55.567,15.668,110.154,32.836,162.792,58.525,177.866,168.041,227.925,324.829,304.742,68.89,33.351,137.005,68.458,207.494,98.375,58.937,25.032,119.748,45.2,179.6,67.9,39.532,23.04,81.511,41.857,125.586,54.351,19.126,3.453,40.606,17.438,59.266,6.779a434.177,434.177,0,0,0,62.332,10.831c37.168,3.983,74.6,2.036,111.826-.27,74.365-3.807,139.345-14.363,204.311-53.213,55-30.79,102.987-72.211,150.343-113.4,49.131-44.207,100.77-87.211,138.727-141.871,36.844-54.419,59.119-116.893,79.731-178.852,23.379-70.5,46.688-141.116,67.58-212.4,16.869-60.89,35.995-121.892,40.572-185.234,4.145-55.626-1.192-111.346-7.578-166.609M565.33,79.294c45.82-29.388,94.049-60.419,148.807-68.718,24.7-2.659,48.548,5.2,72.28,11.532C727.034,32.552,671.873,58.094,619.828,87.766c-38.914,21.4-79.181,40.631-114.887,67.389-77.234,57.328-140.581,131.236-202.658,204.11C368.873,248.92,457.718,151.255,565.33,79.294M156.36,708.807c19.263-55.4,48.136-106.906,81.1-155.307-33.287,80.766-61.375,163.621-79.123,249.263-4.341-31.075-6.318-62.768-1.982-93.956M123.5,1282.4c-34.646-66.668-58.658-151.186-59.737-227.042,2.835-77.636,26.749-152.766,49.441-226.5q8.462,65.677,18.542,131.124a849.2,849.2,0,0,0-1.7,94.873c4.748,119.891,47.768,263.062,124.438,356.449-55.248-30.5-101.069-72.917-130.981-128.9M978.622,1680c-29.388-.844-57.794-9.138-86.338-15.407-44.932-10.7-89.532-22.771-133.91-35.578-10.478-3.267-20.936-6.519-31.35-9.913-31.1-19.15-62.646-37.511-94.491-55.371-29.947-16.325-60.767-30.972-91.656-45.418-69.361-50.7-137.952-103.668-197.468-165.873-70.828-71.019-108.167-166.467-131.148-262.488-6.352-25.282-13.082-52.315-18.694-79.623-.378-65.6,12.577-130.447,27.131-194.2,17.752-86.9,47.336-170.611,81.4-252.334,45.482-112.2,100.819-223.858,189.536-308.421,39.233-37.388,83.626-68.733,130.564-95.663,65.353-27.96,134.685-45.874,203.369-63.666,17.4-3.674,34.6-8.3,52.1-11.361,22.937.26,45.943,7.289,68.768,10.478a1421.812,1421.812,0,0,0,154.748,21.559c13.225,1.114,26.5,1.4,39.747,2.173,39.243,20.308,73.526,48.69,104.9,79.554,52.649,50.48,101.29,104.9,148.4,160.551,50.961,61.012,105.179,123.893,126.94,202.02,17.919,83.169,15.721,169.606,12.862,254.212-2.83,72-22.089,142.009-40.027,211.423-27.519,95.04-51.609,191.66-91.563,282.457-25.395,51.962-57.417,100.161-88.251,148.979-37.913,60.664-80.991,121.652-146.178,155.179-58.893,30.83-121.343,65.751-189.394,66.732M1679.339,1072.3c-10.924,35.848-22.01,71.662-33.881,107.2-32.439,92.96-54.2,193.858-116.722,272.352-32.733,38.924-71.264,72.461-109.211,106.146-66.207,56.965-134.611,118.468-221.052,141.219-28.2,6.789-57.181,8.869-85.97,11.557,151.338-63.69,194.323-118.458,277.8-254.487,25.659-40.4,51.452-80.967,71.436-124.546,27.911-62.405,47.5-128.077,66.511-193.647,26.621-94.383,56.538-188.893,67.026-286.73,5.244-56.622,4.778-113.622,3.085-170.4-1.579-42.524-3.929-85.387-13.431-126.984-18.655-80.035-68.625-147.748-120.087-210.025-56.371-67.531-114.514-133.827-178.156-194.642-4.758-4.562-9.516-9.109-14.333-13.588,51.26,12.455,93.368,45.418,131.614,80.29,36.956,32.277,72.966,65.648,109.315,98.6,76.4,71.421,140.919,124.992,165.657,231.741,26.523,102.462,43.834,208.054,43.829,314.1-1.138,72.692-23.972,142.47-43.426,211.85" transform="translate(0.001 0)"/>
    <path id="Path_3" data-name="Path 3" d="M168.751,495.32c46.581,7.442,85.485-15.908,116.467-48.249q-1.442,11.118-2.874,22.231c-2.34,11.3-4.474,22.658-6.01,34.063a21.577,21.577,0,0,0,.741,9.114c-.927,8.221-1.84,16.443-2.659,24.678a21.9,21.9,0,1,0,43.564,4.592c.878-7.785,1.649-15.584,2.408-23.379a20.907,20.907,0,0,0,2.782-6.813c2.085-11.5,3.958-23.016,6.4-34.45,8.113-38.968,19.248-77.258,26.905-116.319,3.149-13.725,2.9-28.063,5.4-41.8a21.428,21.428,0,0,0,.216-12.175c1.81-14.123-1.894-31.536-15.908-37.261a17.738,17.738,0,0,0-6.775-7.162c-.235-1.314-.436-2.639-.72-3.944-8.025-10.772-27.146-5.288-27.882,8.251-.065,1.212-.123,2.423-.187,3.64-4.949,7.853-5.592,17.909-7.049,27.107-3.365,5.415-6.818,10.591-10.85,14.539-18.1,20.019-83.64,96.463-106.239,97.635-2.315-19.371.54-38.825,1.859-58.157,3.114-8.991,5.989-18.105,9.32-27.014,10.262-26.95,20.76-54.566,35.662-79.216,36.373-43.426,85.838-72.069,131.089-104.944,7.559-5.676,13.357-13.73,12.842-23.555.117-15.741-16.2-23.192-29.947-23.163A80.275,80.275,0,0,0,293.921,105c-4.621,2.708-9.081,5.636-13.392,8.736-3.674.113-7.348.147-11.037.309-31.036.4-50.064,29.957-66.3,52.708-22.2,34.612-42.249,70.7-58.594,108.431-21.049,37.732-37.825,77.995-47.518,120.122-14.353,53.674,18.13,93.721,71.671,100.014m66.227-348.237c8.2-9.134,17.35-18.533,29.868-20.764a236.306,236.306,0,0,0-19.96,20.121,192.852,192.852,0,0,0-27.214,24.7q8.263-12.281,17.306-24.056M168.811,456.906c.529.535,1.079.948,1.619,1.423a41.086,41.086,0,0,1-13.186.848,76.435,76.435,0,0,1,11.567-2.272m-33.484-105q2.193-6.483,4.6-12.921c-.505,3.017-1,6.039-1.432,9.065-1.339,16.987-7.176,32.782-13.166,48.587a289.436,289.436,0,0,1,10-44.731" transform="translate(365.858 362.584)"/>
    <path id="Path_4" data-name="Path 4" d="M259.224,489.572c10.84.8,21.367-2.521,31.041-7.2,29.27-13.377,52.86-35.157,74.277-58.761-7.02,34.588-10.317,69.959-14.745,104.92-2.389,9.261,0,19.155,6.1,25.586-1.491,13.622-2.085,29.216,13.627,31.659,7.451.775,15.246-4.278,16.8-11.807,1.373-6.642,2.311-13.386,3.159-20.142,5.3-5.945,7.594-14.9,7.594-24.414,1.545-13.621,3.438-27.2,5.6-40.738,7.706-3.276,13.7-10.556,14.6-19.141,5.518-28.1,11.837-56.063,16.365-84.361,2.953-19.356,4.93-38.85,7.167-58.309,5.669-19.082,17.781-44.673.318-57.991-9.02-7.039-22-5.052-29.632,2.467-.364.211-.746.383-1.109.614C400.133,278.139,397.46,290.52,396,301.537a82,82,0,0,1-5.214,10.5c-17.88,25.39-37.418,49.333-60.085,70.877-10.051,8.9-20.833,17.213-32.586,21.765-6.666.094-13.151-1.074-18.7-4.836-12.258-12.636-11.037-33.572-10.8-50.039,19.97-45.874,52.169-85.936,91.145-117.114C383.328,213.536,410.1,199.227,436.4,184.3c12.214-6.921,24.4-14.4,34.083-24.708,18.413-17.488,17.56-50.608-5.029-64.181-12.812-7.638-28.652-6.494-42.848-4.4-42.3,7.039-80.329,41.136-109.075,71.367-31.2,37.889-61.557,79.108-74.178,127.288a149.925,149.925,0,0,0-4.228,22.064c-8.462,16.913-16.649,33.974-22.046,52.153A382.71,382.71,0,0,0,200.365,428.6c-3.453,33.851,27.254,58.707,58.859,60.972m173.2-356.694c-26,17.876-55.661,29.962-81.316,48.514,22.942-20.034,49.647-45.561,81.316-48.514m-168.306,309.1c-.623.181-1.247.363-1.884.505-7.137-1.221-11.042-3.046-13.052-5.6a96.157,96.157,0,0,0,14.937,5.092" transform="translate(781.446 349.343)"/>
    <path id="Path_5" data-name="Path 5" d="M1102.509,359.951c17.076-17.845,26.8-40.88,41.651-60.462,4.376,2.875,7.873,5.042,10.022,6.225,2.654,4.669,6.1,12.23,11.243,15.746,16.693,11.748,34.009-1.692,39.366-18.356,2.389-11.591-.54-23.541-4.925-34.308-4.9-13.911-8.717-28.255-14.858-41.739a21.221,21.221,0,0,0-18.444-12.426c-4.993-6.538-10.419-12.724-15.864-18.89-3.748-4.924-8.525-8.918-14.775-10.051-13.495-3.36-21.451,11.674-21.034,23.251a123.22,123.22,0,0,0,5.018,22.849,22.151,22.151,0,0,0-17.242-6.784,24.974,24.974,0,0,0-5.808.863c-5.268-2.423-10.542-4.836-15.845-7.2-5.19-1.7-18.109-9.957-22.275-4.881-4.292,6.019,2.536,16.86,14.25,29.055-17.988,15.579-35.583,31.591-53.178,47.611C998,309.648,977.551,330.24,956.6,350.333a853.657,853.657,0,0,0-67.571,64.058c-23.447,19.709-52.644,31.653-80.487,43.829-14.828,4.742-30,8.4-44.555,14.034-24.36,8.8-49.229,16.432-74.84,20.572-20.9,3.228-42.058,4.661-63,7.716-21.5-2.36-43-4.562-64.422-7.6-20.107-2.914-39.86-7.75-60.006-10.468-21.819-3.145-43.9-4.012-65.854-5.891a744.457,744.457,0,0,1-70.1-25.61c-23.163-11.013-40.6-23.424-62.43-39.135-23.443-15.878-44.972-34.547-61.925-57.358a684.84,684.84,0,0,0-57.014-69.39c-.574-.574-1.158-1.182-1.751-1.81,7.118-9.889,12.023-20.8,10.464-33.13-2.757-17.051-25.562-22.809-36.829-10.194-5.926,6.328-10.924,13.451-15.8,20.677-7.6,2.379-18.69,6.6-13.843,14.166-5.793,5.215-8.855,10.831-9.948,16.609-1.633,1.551-3.316,3.057-5.111,4.469-12.3,10.762-25.757,20.009-38.394,30.349a22.435,22.435,0,0,0-8.182,17.85c.1,13,13.019,23.57,25.762,21.1a14.116,14.116,0,0,0,5.425,2.658,14.632,14.632,0,0,0,16.084-7.054l.025.014c3.9-7.46,8.986-14.185,13.813-21.059,2.7-2.217,5.278-4.39,7.795-6.548,4.179,4.92,8.569,9.433,12.518,13.333,19.538,19.871,40.621,38.163,60.144,58.069,13.848,38.016,6.9,73.633,43.648,102.045,31.026,24.6,72.059,25.6,109.678,30.133,61.959,7.991,122.681,23.771,185.008,29.456,35.8,5.1,71.9-.642,105.337-14.029,69.327,10.438,108.761,12.949,176.5-10.36,20.368-6.981,40.082-15.614,59.894-24.016,28.044-12.042,57.259-21.623,84.18-36.117,52.678-29.53,93.039-76.278,131.707-121.75m24.767-108.6q1.553,3.614,3.183,7.182a21.452,21.452,0,0,0-5.131.044,21.132,21.132,0,0,0,1.948-7.226M1063.438,217.5c9.359,2.57,18.375,6.578,27.3,10.845a30.756,30.756,0,0,0-6.858,5.127c-1.584,1.339-3.139,2.713-4.714,4.061-7.353-6.862-13.1-13.71-15.726-20.033" transform="translate(253.778 723.311)"/>
  </g>
</svg>
